#N canvas 202 65 513 393 10;
#X obj 31 128 table waveform;
#X obj 143 211 loadbang;
#X text 197 271 phasor read the table: from 0 to 512 samples;
#X obj 142 320 tabread4~ waveform;
#X obj 143 273 phasor~;
#X obj 143 295 *~ 512;
#X obj 143 255 nbx 5 14 -1e+037 1e+037 0 0 empty empty empty 0 -8 0
10 -262144 -1 -1 440 256;
#X msg 143 233 440;
#X obj 201 352 dac~ 1 2;
#X text -31 33 The way that sinesum works is that you send it a list
of the amplitudes of the harmonics you wish to graph. A sawtooth wave
is the simplest \, as it uses the formula 1/h (where "h" indicates
the number of the harmonic) to compute the amplitudes. Therefore \,
the amplitude of the first harmonic is 1/1 = 1 \, the second is 1/2
= 0.5 \, the third is 1/3 = 0.33333 \, etc etc.;
#X text -30 7 Sawthooth wave;
#X msg -17 151 \; waveform sinesum 512 1 0.5 0.333 0.25 0.2 0.166 0.142
0.125 0.111 0.1 0.09 0.08 0.07 0.07 0.06 0.06;
#X msg -30 225 \; waveform normalize 1;
#X obj -30 128 loadbang;
#X obj -30 202 delay 2;
#X connect 1 0 7 0;
#X connect 3 0 8 0;
#X connect 3 0 8 1;
#X connect 4 0 5 0;
#X connect 5 0 3 0;
#X connect 6 0 4 0;
#X connect 7 0 6 0;
#X connect 13 0 11 0;
#X connect 13 0 14 0;
#X connect 14 0 12 0;
